<svg width="1584" height="396" viewBox="0 0 1584 396" fill="none" xmlns="http://www.w3.org/2000/svg">
<rect width="1584" height="396" fill="#F5F5F5"/>
<g id="Awesome banner" clip-path="url(#clip0_0_1)">
<rect width="1584" height="396" fill="url(#paint0_linear_0_1)"/>
<ellipse id="Ellipse 2" cx="323" cy="64" rx="285" ry="288" fill="url(#paint1_linear_0_1)" fill-opacity="0.1"/>
<g id="copyright">
<path d="M75.95 334.52L72.30 334.52L72.30 311.16L77.20 311.16L83.70 330.04Q83.60 329.02 83.50 327.62Q83.41 326.23 83.33 324.79Q83.25 323.35 83.25 322.23L83.25 311.16L86.90 311.16L86.90 334.52L82 334.52L75.57 315.64Q75.63 316.57 75.73 317.88Q75.82 319.19 75.89 320.57Q75.95 321.94 75.95 323.10L75.95 334.52M98.80 334.84Q96.46 334.84 94.67 333.96Q92.88 333.08 91.89 331.53Q90.90 329.98 90.90 327.93Q90.90 325.78 92.13 324.18Q93.36 322.58 95.34 322.17L95.34 322.10Q93.65 321.75 92.61 320.38Q91.57 319 91.57 317.11Q91.57 315.26 92.48 313.85Q93.39 312.44 95.02 311.64Q96.66 310.84 98.80 310.84Q100.94 310.84 102.59 311.64Q104.24 312.44 105.15 313.85Q106.06 315.26 106.06 317.11Q106.06 319 105.01 320.38Q103.95 321.75 102.26 322.10L102.26 322.17Q104.24 322.58 105.47 324.18Q106.70 325.78 106.70 327.93Q106.70 329.98 105.71 331.53Q104.72 333.08 102.93 333.96Q101.14 334.84 98.80 334.84M98.80 320.73Q100.30 320.73 101.23 319.82Q102.16 318.90 102.16 317.46Q102.16 315.99 101.23 315.08Q100.30 314.17 98.80 314.17Q97.30 314.17 96.37 315.08Q95.44 315.99 95.44 317.46Q95.44 318.90 96.37 319.82Q97.30 320.73 98.80 320.73M98.80 331.45Q100.56 331.45 101.68 330.42Q102.80 329.40 102.80 327.74Q102.80 326.04 101.68 325Q100.56 323.96 98.80 323.96Q97.04 323.96 95.92 325Q94.80 326.04 94.80 327.74Q94.80 329.40 95.92 330.42Q97.04 331.45 98.80 331.45M114.35 334.52L110.70 334.52L110.70 311.16L115.60 311.16L122.10 330.04Q122 329.02 121.90 327.62Q121.81 326.23 121.73 324.79Q121.65 323.35 121.65 322.23L121.65 311.16L125.30 311.16L125.30 334.52L120.40 334.52L113.97 315.64Q114.03 316.57 114.13 317.88Q114.22 319.19 114.29 320.57Q114.35 321.94 114.35 323.10" fill="white" fill-opacity="0.9"/>
<path d="M161.48 325.24L151.24 325.24L151.24 322.68L161.48 322.68" fill="white" fill-opacity="0.9"/>
<path d="M195.02 334.84Q191.82 334.84 189.96 333.05Q188.11 331.26 188.11 328.12L188.11 317.56Q188.11 314.42 189.96 312.63Q191.82 310.84 195.02 310.84Q198.15 310.84 200.01 312.65Q201.87 314.46 201.87 317.56L198.99 317.56Q198.99 315.58 197.95 314.50Q196.91 313.43 195.02 313.43Q193.13 313.43 192.06 314.50Q190.99 315.58 190.99 317.56L190.99 328.12Q190.99 330.10 192.06 331.18Q193.13 332.25 195.02 332.25Q196.91 332.25 197.95 331.18Q198.99 330.10 198.99 328.12L201.87 328.12Q201.87 331.22 200.01 333.03Q198.15 334.84 195.02 334.84" fill="white" fill-opacity="0.9"/>
<path d="M213.96 334.84Q210.83 334.84 209 333.02Q207.18 331.19 207.18 327.80L207.18 317.88Q207.18 314.49 209 312.66Q210.83 310.84 213.96 310.84Q217.10 310.84 218.92 312.66Q220.75 314.49 220.75 317.85L220.75 327.80Q220.75 331.19 218.92 333.02Q217.10 334.84 213.96 334.84M213.96 332.25Q215.85 332.25 216.86 331.18Q217.87 330.10 217.87 328.12L217.87 317.56Q217.87 315.58 216.86 314.50Q215.85 313.43 213.96 313.43Q212.11 313.43 211.08 314.50Q210.06 315.58 210.06 317.56L210.06 328.12Q210.06 330.10 211.08 331.18Q212.11 332.25 213.96 332.25" fill="white" fill-opacity="0.9"/>
<path d="M228.65 334.52L225.87 334.52L225.87 311.16L230.12 311.16L233.10 321.27L236.20 311.16L240.46 311.16L240.46 334.52L237.67 334.52L237.67 323.48Q237.67 321.91 237.72 319.88Q237.77 317.85 237.87 315.77Q237.96 313.69 238.09 312.02L234.31 324.09L231.82 324.09L228.20 312.31Q228.46 314.68 228.55 317.50Q228.65 320.31 228.65 323.48" fill="white" fill-opacity="0.9"/>
<path d="M247.85 334.52L245.07 334.52L245.07 311.16L249.32 311.16L252.30 321.27L255.40 311.16L259.66 311.16L259.66 334.52L256.87 334.52L256.87 323.48Q256.87 321.91 256.92 319.88Q256.97 317.85 257.07 315.77Q257.16 313.69 257.29 312.02L253.51 324.09L251.02 324.09L247.40 312.31Q247.66 314.68 247.75 317.50Q247.85 320.31 247.85 323.48" fill="white" fill-opacity="0.9"/>
<path d="M271.56 334.84Q268.30 334.84 266.57 333.03Q264.84 331.22 264.84 328.12L264.84 311.16L267.72 311.16L267.72 328.12Q267.72 330.04 268.67 331.16Q269.61 332.28 271.56 332.28Q273.48 332.28 274.44 331.16Q275.40 330.04 275.40 328.12L275.40 311.16L278.28 311.16L278.28 328.12Q278.28 331.26 276.57 333.05Q274.86 334.84 271.56 334.84" fill="white" fill-opacity="0.9"/>
<path d="M286.83 334.52L284.04 334.52L284.04 311.16L287.88 311.16L295.02 331.16Q294.95 330.36 294.87 329.19Q294.79 328.02 294.75 326.73Q294.70 325.43 294.70 324.28L294.70 311.16L297.48 311.16L297.48 334.52L293.64 334.52L286.54 314.52Q286.60 315.29 286.67 316.46Q286.73 317.62 286.78 318.92Q286.83 320.22 286.83 321.40" fill="white" fill-opacity="0.9"/>
<path d="M316.20 334.52L303.72 334.52L303.72 331.90L308.49 331.90L308.49 313.78L303.72 313.78L303.72 311.16L316.20 311.16L316.20 313.78L311.43 313.78L311.43 331.90L316.20 331.90" fill="white" fill-opacity="0.9"/>
<path d="M330.60 334.52L327.72 334.52L327.72 313.78L321.32 313.78L321.32 311.16L337 311.16L337 313.78L330.60 313.78" fill="white" fill-opacity="0.9"/>
<path d="M349.80 334.52L346.92 334.52L346.92 325.78L339.88 311.16L342.95 311.16L347.50 320.76Q347.88 321.56 348.11 322.12Q348.33 322.68 348.39 322.94Q348.46 322.68 348.70 322.12Q348.94 321.56 349.32 320.76L353.87 311.16L356.84 311.16L349.80 325.78" fill="white" fill-opacity="0.9"/>
<path d="M382.83 334.52L380.04 334.52L380.04 311.16L383.88 311.16L391.02 331.16Q390.95 330.36 390.87 329.19Q390.79 328.02 390.75 326.73Q390.70 325.43 390.70 324.28L390.70 311.16L393.48 311.16L393.48 334.52L389.64 334.52L382.54 314.52Q382.60 315.29 382.67 316.46Q382.73 317.62 382.78 318.92Q382.83 320.22 382.83 321.40" fill="white" fill-opacity="0.9"/>
<path d="M405.96 334.84Q402.83 334.84 401 333.02Q399.18 331.19 399.18 327.80L399.18 317.88Q399.18 314.49 401 312.66Q402.83 310.84 405.96 310.84Q409.10 310.84 410.92 312.66Q412.75 314.49 412.75 317.85L412.75 327.80Q412.75 331.19 410.92 333.02Q409.10 334.84 405.96 334.84M405.96 332.25Q407.85 332.25 408.86 331.18Q409.87 330.10 409.87 328.12L409.87 317.56Q409.87 315.58 408.86 314.50Q407.85 313.43 405.96 313.43Q404.11 313.43 403.08 314.50Q402.06 315.58 402.06 317.56L402.06 328.12Q402.06 330.10 403.08 331.18Q404.11 332.25 405.96 332.25" fill="white" fill-opacity="0.9"/>
<path d="M424.55 334.52L418.51 334.52L418.51 311.16L424.55 311.16Q426.83 311.16 428.47 312.02Q430.12 312.89 431.03 314.46Q431.95 316.02 431.95 318.17L431.95 327.48Q431.95 329.62 431.03 331.21Q430.12 332.79 428.47 333.66Q426.83 334.52 424.55 334.52M421.39 313.72L421.39 331.96L424.55 331.96Q426.67 331.96 427.87 330.78Q429.07 329.59 429.07 327.48L429.07 318.17Q429.07 316.09 427.87 314.90Q426.67 313.72 424.55 313.72" fill="white" fill-opacity="0.9"/>
<path d="M451.40 334.52L437.96 334.52L437.96 311.16L451.40 311.16L451.40 313.78L440.81 313.78L440.81 321.02L450.28 321.02L450.28 323.58L440.81 323.58L440.81 331.90L451.40 331.90" fill="white" fill-opacity="0.9"/>
<path d="M463.69 334.84Q460.30 334.84 458.28 333.05Q456.27 331.26 456.27 328.12L459.15 328.12Q459.15 330.07 460.39 331.18Q461.64 332.28 463.69 332.28Q465.67 332.28 466.86 331.13Q468.04 329.98 468.04 328.12Q468.04 326.71 467.29 325.67Q466.54 324.63 465.13 324.25L461.58 323.26Q459.37 322.62 458.11 320.97Q456.84 319.32 456.84 317.08Q456.84 315.22 457.67 313.82Q458.51 312.41 460.01 311.62Q461.51 310.84 463.47 310.84Q465.45 310.84 466.97 311.62Q468.49 312.41 469.35 313.80Q470.22 315.19 470.22 317.02L467.34 317.02Q467.34 315.42 466.25 314.41Q465.16 313.40 463.47 313.40Q461.77 313.40 460.71 314.41Q459.66 315.42 459.66 317.02Q459.66 318.30 460.35 319.21Q461.03 320.12 462.28 320.47L465.93 321.50Q468.27 322.14 469.56 323.91Q470.86 325.69 470.86 328.12Q470.86 331.19 468.91 333.02Q466.95 334.84 463.69 334.84" fill="white" fill-opacity="0.9"/>
</g>
<path d="M73.41 197.64L71.20 197.64L75.76 180.12L78.66 180.12L83.20 197.64L81.02 197.64L79.86 192.98L74.56 192.98L73.41 197.64M76.34 185.74L74.99 191.16L79.41 191.16L78.06 185.76Q77.68 184.22 77.46 183.19Q77.25 182.16 77.20 181.85Q77.15 182.16 76.94 183.19Q76.72 184.22 76.34 185.74" fill="white" fill-opacity="0.7"/>
<path d="M89.25 197.64L87.09 197.64L87.09 184.44L89.25 184.44L89.25 186.96L89.30 186.96Q89.46 185.69 90.38 184.94Q91.29 184.20 92.82 184.20Q94.89 184.20 96 185.44Q97.12 186.67 97.12 188.95L97.12 190.08L94.96 190.08L94.96 188.95Q94.96 186.07 92.15 186.07Q90.74 186.07 89.99 186.89Q89.25 187.70 89.25 189.24" fill="white" fill-opacity="0.7"/>
<path d="M105.98 197.88Q103.70 197.88 102.33 196.52Q100.96 195.17 100.96 192.84L100.96 184.44L103.12 184.44L103.12 192.84Q103.12 194.28 103.89 195.13Q104.66 195.98 105.98 195.98Q107.32 195.98 108.10 195.13Q108.88 194.28 108.88 192.84L108.88 184.44L111.04 184.44L111.04 192.84Q111.04 195.17 109.65 196.52Q108.26 197.88 105.98 197.88" fill="white" fill-opacity="0.7"/>
<path d="M117.57 197.64L115.41 197.64L115.41 184.44L117.57 184.44L117.57 186.96L117.59 186.96Q117.76 185.64 118.67 184.92Q119.58 184.20 121.10 184.20Q123.09 184.20 124.26 185.42Q125.44 186.65 125.44 188.76L125.44 197.64L123.28 197.64L123.28 189.14Q123.28 187.63 122.52 186.83Q121.77 186.02 120.47 186.02Q119.13 186.02 118.35 186.86Q117.57 187.70 117.57 189.24" fill="white" fill-opacity="0.7"/>
<path d="M133.65 197.88Q131.61 197.88 130.41 196.74Q129.21 195.60 129.21 193.75Q129.21 192.53 129.76 191.62Q130.31 190.70 131.30 190.19Q132.28 189.67 133.55 189.67L137.63 189.67L137.63 188.64Q137.63 186.07 134.82 186.07Q133.58 186.07 132.81 186.53Q132.04 186.98 131.99 187.80L129.83 187.80Q129.95 186.24 131.28 185.22Q132.62 184.20 134.82 184.20Q137.22 184.20 138.51 185.35Q139.79 186.50 139.79 188.57L139.79 197.64L137.66 197.64L137.66 195.24L137.61 195.24Q137.42 196.46 136.38 197.17Q135.35 197.88 133.65 197.88M134.18 196.06Q135.76 196.06 136.70 195.29Q137.63 194.52 137.63 193.20L137.63 191.35L133.79 191.35Q132.74 191.35 132.08 191.99Q131.42 192.62 131.42 193.68Q131.42 194.78 132.15 195.42Q132.88 196.06 134.18 196.06" fill="white" fill-opacity="0.7"/>
<path d="M149.39 197.88Q146.99 197.88 145.55 196.54Q144.11 195.19 144.11 192.84L144.11 189.24Q144.11 186.89 145.55 185.54Q146.99 184.20 149.39 184.20Q151.67 184.20 153.08 185.42Q154.48 186.65 154.55 188.76L152.39 188.76Q152.32 187.49 151.53 186.80Q150.74 186.12 149.39 186.12Q147.98 186.12 147.12 186.92Q146.27 187.73 146.27 189.22L146.27 192.84Q146.27 194.33 147.12 195.14Q147.98 195.96 149.39 195.96Q150.74 195.96 151.53 195.26Q152.32 194.57 152.39 193.32L154.55 193.32Q154.48 195.43 153.08 196.66Q151.67 197.88 149.39 197.88" fill="white" fill-opacity="0.7"/>
<path d="M160.77 197.64L158.61 197.64L158.61 180.12L160.77 180.12L160.77 186.96L160.79 186.96Q160.96 185.64 161.87 184.92Q162.78 184.20 164.30 184.20Q166.29 184.20 167.46 185.42Q168.64 186.65 168.64 188.76L168.64 197.64L166.48 197.64L166.48 189.12Q166.48 187.63 165.72 186.83Q164.97 186.02 163.67 186.02Q162.33 186.02 161.55 186.86Q160.77 187.70 160.77 189.24" fill="white" fill-opacity="0.7"/>
<path d="M176.85 197.88Q174.81 197.88 173.61 196.74Q172.41 195.60 172.41 193.75Q172.41 192.53 172.96 191.62Q173.51 190.70 174.50 190.19Q175.48 189.67 176.75 189.67L180.83 189.67L180.83 188.64Q180.83 186.07 178.02 186.07Q176.78 186.07 176.01 186.53Q175.24 186.98 175.19 187.80L173.03 187.80Q173.15 186.24 174.48 185.22Q175.82 184.20 178.02 184.20Q180.42 184.20 181.71 185.35Q182.99 186.50 182.99 188.57L182.99 197.64L180.86 197.64L180.86 195.24L180.81 195.24Q180.62 196.46 179.58 197.17Q178.55 197.88 176.85 197.88M177.38 196.06Q178.96 196.06 179.90 195.29Q180.83 194.52 180.83 193.20L180.83 191.35L176.99 191.35Q175.94 191.35 175.28 191.99Q174.62 192.62 174.62 193.68Q174.62 194.78 175.35 195.42Q176.08 196.06 177.38 196.06" fill="white" fill-opacity="0.7"/>
<path d="M198.40 197.64L194.32 197.64Q192.57 197.64 191.52 196.62Q190.48 195.60 190.48 193.92L190.48 182.09L185.92 182.09L185.92 180.12L192.64 180.12L192.64 193.92Q192.64 194.74 193.10 195.20Q193.55 195.67 194.32 195.67L198.40 195.67" fill="white" fill-opacity="0.7"/>
<path d="M218.37 197.64L216.21 197.64L216.21 180.12L221.85 180.12Q224.30 180.12 225.75 181.52Q227.20 182.93 227.20 185.28Q227.20 187.63 225.75 189.04Q224.30 190.44 221.85 190.44L218.37 190.44L218.37 197.64M218.37 182.06L218.37 188.50L221.85 188.50Q223.26 188.50 224.12 187.62Q224.97 186.74 224.97 185.28Q224.97 183.79 224.12 182.93Q223.26 182.06 221.85 182.06" fill="white" fill-opacity="0.7"/>
<path d="M233.25 197.64L231.09 197.64L231.09 184.44L233.25 184.44L233.25 186.96L233.30 186.96Q233.46 185.69 234.38 184.94Q235.29 184.20 236.82 184.20Q238.89 184.20 240 185.44Q241.12 186.67 241.12 188.95L241.12 190.08L238.96 190.08L238.96 188.95Q238.96 186.07 236.15 186.07Q234.74 186.07 233.99 186.89Q233.25 187.70 233.25 189.24" fill="white" fill-opacity="0.7"/>
<path d="M248.85 197.88Q246.81 197.88 245.61 196.74Q244.41 195.60 244.41 193.75Q244.41 192.53 244.96 191.62Q245.51 190.70 246.50 190.19Q247.48 189.67 248.75 189.67L252.83 189.67L252.83 188.64Q252.83 186.07 250.02 186.07Q248.78 186.07 248.01 186.53Q247.24 186.98 247.19 187.80L245.03 187.80Q245.15 186.24 246.48 185.22Q247.82 184.20 250.02 184.20Q252.42 184.20 253.71 185.35Q254.99 186.50 254.99 188.57L254.99 197.64L252.86 197.64L252.86 195.24L252.81 195.24Q252.62 196.46 251.58 197.17Q250.55 197.88 248.85 197.88M249.38 196.06Q250.96 196.06 251.90 195.29Q252.83 194.52 252.83 193.20L252.83 191.35L248.99 191.35Q247.94 191.35 247.28 191.99Q246.62 192.62 246.62 193.68Q246.62 194.78 247.35 195.42Q248.08 196.06 249.38 196.06" fill="white" fill-opacity="0.7"/>
<path d="M263.63 197.88Q261.66 197.88 260.48 196.56Q259.29 195.24 259.29 192.98L259.29 189.12Q259.29 186.84 260.46 185.52Q261.64 184.20 263.63 184.20Q265.12 184.20 266.09 184.94Q267.06 185.69 267.26 186.96L267.28 186.96L267.23 183.96L267.23 180.12L269.39 180.12L269.39 197.64L267.23 197.64L267.23 195.12L267.21 195.12Q267.04 196.42 266.08 197.15Q265.12 197.88 263.63 197.88M264.35 196.01Q265.70 196.01 266.46 195.17Q267.23 194.33 267.23 192.84L267.23 189.24Q267.23 187.75 266.46 186.91Q265.70 186.07 264.35 186.07Q262.98 186.07 262.22 186.78Q261.45 187.49 261.45 189.12L261.45 192.96Q261.45 194.57 262.22 195.29Q262.98 196.01 264.35 196.01" fill="white" fill-opacity="0.7"/>
<path d="M278.80 197.88Q276.47 197.88 275.04 196.48Q273.62 195.07 273.62 192.60L273.62 189.48Q273.62 187.01 275.04 185.60Q276.47 184.20 278.80 184.20Q280.36 184.20 281.52 184.82Q282.69 185.45 283.34 186.58Q283.98 187.70 283.98 189.24L283.98 191.59L275.73 191.59L275.73 192.84Q275.73 194.30 276.57 195.16Q277.41 196.01 278.80 196.01Q280 196.01 280.78 195.54Q281.56 195.07 281.73 194.28L283.89 194.28Q283.67 195.94 282.28 196.91Q280.89 197.88 278.80 197.88M275.73 189.24L275.73 189.91L281.87 189.91L281.87 189.24Q281.87 187.68 281.07 186.83Q280.26 185.98 278.80 185.98Q277.34 185.98 276.53 186.83Q275.73 187.68 275.73 189.24" fill="white" fill-opacity="0.7"/>
<path d="M293.73 197.83L292.67 197.83Q290.46 197.83 289.25 196.84Q288.04 195.84 288.04 194.02L290.20 194.02Q290.20 194.93 290.85 195.44Q291.50 195.96 292.67 195.96L293.73 195.96Q294.93 195.96 295.59 195.43Q296.25 194.90 296.25 193.94Q296.25 192.24 294.69 192.02L291.04 191.50Q289.70 191.30 288.95 190.38Q288.21 189.46 288.21 187.94Q288.21 186.22 289.40 185.23Q290.58 184.25 292.67 184.25L293.73 184.25Q295.65 184.25 296.86 185.20Q298.07 186.14 298.17 187.68L295.98 187.68Q295.94 186.98 295.32 186.53Q294.71 186.07 293.73 186.07L292.67 186.07Q291.57 186.07 290.94 186.58Q290.32 187.08 290.32 187.94Q290.32 189.34 291.59 189.53L295 190.01Q298.36 190.49 298.36 193.94Q298.36 195.79 297.15 196.81Q295.94 197.83 293.73 197.83" fill="white" fill-opacity="0.7"/>
<path d="M304.77 197.64L302.61 197.64L302.61 180.12L304.77 180.12L304.77 186.96L304.79 186.96Q304.96 185.64 305.87 184.92Q306.78 184.20 308.30 184.20Q310.29 184.20 311.46 185.42Q312.64 186.65 312.64 188.76L312.64 197.64L310.48 197.64L310.48 189.12Q310.48 187.63 309.72 186.83Q308.97 186.02 307.67 186.02Q306.33 186.02 305.55 186.86Q304.77 187.70 304.77 189.24" fill="white" fill-opacity="0.7"/>
<path d="M336.40 197.88Q334.07 197.88 332.64 196.48Q331.22 195.07 331.22 192.60L331.22 189.48Q331.22 187.01 332.64 185.60Q334.07 184.20 336.40 184.20Q337.96 184.20 339.12 184.82Q340.29 185.45 340.94 186.58Q341.58 187.70 341.58 189.24L341.58 191.59L333.33 191.59L333.33 192.84Q333.33 194.30 334.17 195.16Q335.01 196.01 336.40 196.01Q337.60 196.01 338.38 195.54Q339.16 195.07 339.33 194.28L341.49 194.28Q341.27 195.94 339.88 196.91Q338.49 197.88 336.40 197.88M333.33 189.24L333.33 189.91L339.47 189.91L339.47 189.24Q339.47 187.68 338.67 186.83Q337.86 185.98 336.40 185.98Q334.94 185.98 334.13 186.83Q333.33 187.68 333.33 189.24" fill="white" fill-opacity="0.7"/>
<path d="M355.48 197.64L346.12 197.64L346.12 195.67L349.70 195.67L349.70 182.09L346.12 182.09L346.12 180.12L355.48 180.12L355.48 182.09L351.90 182.09L351.90 195.67L355.48 195.67" fill="white" fill-opacity="0.7"/>
<path d="M371.20 197.64L361.12 197.64L361.12 180.12L363.28 180.12L363.28 195.67L371.20 195.67" fill="white" fill-opacity="0.7"/>
<path d="M376.77 197.64L374.61 197.64L374.61 180.12L380.25 180.12Q382.70 180.12 384.15 181.52Q385.60 182.93 385.60 185.28Q385.60 187.63 384.15 189.04Q382.70 190.44 380.25 190.44L376.77 190.44L376.77 197.64M376.77 182.06L376.77 188.50L380.25 188.50Q381.66 188.50 382.52 187.62Q383.37 186.74 383.37 185.28Q383.37 183.79 382.52 182.93Q381.66 182.06 380.25 182.06" fill="white" fill-opacity="0.7"/>
<path d="M407.25 197.88Q405.21 197.88 404.01 196.74Q402.81 195.60 402.81 193.75Q402.81 192.53 403.36 191.62Q403.91 190.70 404.90 190.19Q405.88 189.67 407.15 189.67L411.23 189.67L411.23 188.64Q411.23 186.07 408.42 186.07Q407.18 186.07 406.41 186.53Q405.64 186.98 405.59 187.80L403.43 187.80Q403.55 186.24 404.88 185.22Q406.22 184.20 408.42 184.20Q410.82 184.20 412.11 185.35Q413.39 186.50 413.39 188.57L413.39 197.64L411.26 197.64L411.26 195.24L411.21 195.24Q411.02 196.46 409.98 197.17Q408.95 197.88 407.25 197.88M407.78 196.06Q409.36 196.06 410.30 195.29Q411.23 194.52 411.23 193.20L411.23 191.35L407.39 191.35Q406.34 191.35 405.68 191.99Q405.02 192.62 405.02 193.68Q405.02 194.78 405.75 195.42Q406.48 196.06 407.78 196.06" fill="white" fill-opacity="0.7"/>
<path d="M424.22 197.64L421.38 197.64L416.90 184.44L419.22 184.44L422.10 193.32Q422.37 194.11 422.56 194.84Q422.75 195.58 422.85 195.98Q422.97 195.58 423.14 194.84Q423.30 194.11 423.54 193.32L426.42 184.44L428.70 184.44" fill="white" fill-opacity="0.7"/>
<path d="M436.05 197.88Q434.01 197.88 432.81 196.74Q431.61 195.60 431.61 193.75Q431.61 192.53 432.16 191.62Q432.71 190.70 433.70 190.19Q434.68 189.67 435.95 189.67L440.03 189.67L440.03 188.64Q440.03 186.07 437.22 186.07Q435.98 186.07 435.21 186.53Q434.44 186.98 434.39 187.80L432.23 187.80Q432.35 186.24 433.68 185.22Q435.02 184.20 437.22 184.20Q439.62 184.20 440.91 185.35Q442.19 186.50 442.19 188.57L442.19 197.64L440.06 197.64L440.06 195.24L440.01 195.24Q439.82 196.46 438.78 197.17Q437.75 197.88 436.05 197.88M436.58 196.06Q438.16 196.06 439.10 195.29Q440.03 194.52 440.03 193.20L440.03 191.35L436.19 191.35Q435.14 191.35 434.48 191.99Q433.82 192.62 433.82 193.68Q433.82 194.78 434.55 195.42Q435.28 196.06 436.58 196.06" fill="white" fill-opacity="0.7"/>
<path d="M457.72 197.64L446.44 197.64L446.44 195.67L451.12 195.67L451.12 186.41L446.92 186.41L446.92 184.44L453.28 184.44L453.28 195.67L457.72 195.67L457.72 197.64M451.96 182.06Q451.17 182.06 450.71 181.66Q450.26 181.25 450.26 180.55Q450.26 179.83 450.71 179.41Q451.17 178.99 451.96 178.99Q452.75 178.99 453.21 179.41Q453.66 179.83 453.66 180.55Q453.66 181.25 453.21 181.66Q452.75 182.06 451.96 182.06" fill="white" fill-opacity="0.7"/>
<path d="M472 197.64L467.92 197.64Q466.17 197.64 465.12 196.62Q464.08 195.60 464.08 193.92L464.08 182.09L459.52 182.09L459.52 180.12L466.24 180.12L466.24 193.92Q466.24 194.74 466.70 195.20Q467.15 195.67 467.92 195.67L472 195.67" fill="white" fill-opacity="0.7"/>
<path d="M479.25 197.88Q477.21 197.88 476.01 196.74Q474.81 195.60 474.81 193.75Q474.81 192.53 475.36 191.62Q475.91 190.70 476.90 190.19Q477.88 189.67 479.15 189.67L483.23 189.67L483.23 188.64Q483.23 186.07 480.42 186.07Q479.18 186.07 478.41 186.53Q477.64 186.98 477.59 187.80L475.43 187.80Q475.55 186.24 476.88 185.22Q478.22 184.20 480.42 184.20Q482.82 184.20 484.11 185.35Q485.39 186.50 485.39 188.57L485.39 197.64L483.26 197.64L483.26 195.24L483.21 195.24Q483.02 196.46 481.98 197.17Q480.95 197.88 479.25 197.88M479.78 196.06Q481.36 196.06 482.30 195.29Q483.23 194.52 483.23 193.20L483.23 191.35L479.39 191.35Q478.34 191.35 477.68 191.99Q477.02 192.62 477.02 193.68Q477.02 194.78 477.75 195.42Q478.48 196.06 479.78 196.06" fill="white" fill-opacity="0.7"/>
<path d="M495.57 197.88Q494.08 197.88 493.12 197.15Q492.16 196.42 491.99 195.12L491.97 195.12L491.97 197.64L489.81 197.64L489.81 180.12L491.97 180.12L491.97 183.96L491.92 186.96L491.94 186.96Q492.14 185.69 493.11 184.94Q494.08 184.20 495.57 184.20Q497.56 184.20 498.74 185.52Q499.91 186.84 499.91 189.12L499.91 192.98Q499.91 195.24 498.74 196.56Q497.56 197.88 495.57 197.88M494.85 196.01Q496.22 196.01 496.98 195.29Q497.75 194.57 497.75 192.96L497.75 189.12Q497.75 187.49 496.98 186.78Q496.22 186.07 494.85 186.07Q493.53 186.07 492.75 186.91Q491.97 187.75 491.97 189.24L491.97 192.84Q491.97 194.33 492.75 195.17Q493.53 196.01 494.85 196.01" fill="white" fill-opacity="0.7"/>
<path d="M515.20 197.64L511.12 197.64Q509.37 197.64 508.32 196.62Q507.28 195.60 507.28 193.92L507.28 182.09L502.72 182.09L502.72 180.12L509.44 180.12L509.44 193.92Q509.44 194.74 509.90 195.20Q510.35 195.67 511.12 195.67L515.20 195.67" fill="white" fill-opacity="0.7"/>
<path d="M523.60 197.88Q521.27 197.88 519.84 196.48Q518.42 195.07 518.42 192.60L518.42 189.48Q518.42 187.01 519.84 185.60Q521.27 184.20 523.60 184.20Q525.16 184.20 526.32 184.82Q527.49 185.45 528.14 186.58Q528.78 187.70 528.78 189.24L528.78 191.59L520.53 191.59L520.53 192.84Q520.53 194.30 521.37 195.16Q522.21 196.01 523.60 196.01Q524.80 196.01 525.58 195.54Q526.36 195.07 526.53 194.28L528.69 194.28Q528.47 195.94 527.08 196.91Q525.69 197.88 523.60 197.88M520.53 189.24L520.53 189.91L526.67 189.91L526.67 189.24Q526.67 187.68 525.87 186.83Q525.06 185.98 523.60 185.98Q522.14 185.98 521.33 186.83Q520.53 187.68 520.53 189.24" fill="white" fill-opacity="0.7"/>
<path d="M552.40 197.83Q550.02 197.83 548.62 196.44Q547.22 195.05 547.22 192.55L547.22 189.53Q547.22 187.01 548.61 185.63Q550 184.25 552.40 184.25Q554.80 184.25 556.19 185.63Q557.58 187.01 557.58 189.53L557.58 192.55Q557.58 195.05 556.18 196.44Q554.78 197.83 552.40 197.83M552.40 195.91Q553.82 195.91 554.62 195.12Q555.42 194.33 555.42 192.79L555.42 189.29Q555.42 187.75 554.62 186.96Q553.82 186.17 552.40 186.17Q551.01 186.17 550.19 186.96Q549.38 187.75 549.38 189.29L549.38 192.79Q549.38 194.33 550.19 195.12Q551.01 195.91 552.40 195.91" fill="white" fill-opacity="0.7"/>
<path d="M563.97 197.64L561.81 197.64L561.81 184.44L563.97 184.44L563.97 186.96L563.99 186.96Q564.16 185.64 565.07 184.92Q565.98 184.20 567.50 184.20Q569.49 184.20 570.66 185.42Q571.84 186.65 571.84 188.76L571.84 197.64L569.68 197.64L569.68 189.14Q569.68 187.63 568.92 186.83Q568.17 186.02 566.87 186.02Q565.53 186.02 564.75 186.86Q563.97 187.70 563.97 189.24" fill="white" fill-opacity="0.7"/>
<path d="M595.14 197.64L590.61 197.64L590.61 180.12L595.14 180.12Q596.85 180.12 598.08 180.77Q599.32 181.42 600 182.59Q600.69 183.77 600.69 185.38L600.69 192.36Q600.69 193.97 600 195.16Q599.32 196.34 598.08 196.99Q596.85 197.64 595.14 197.64M592.77 182.04L592.77 195.72L595.14 195.72Q596.73 195.72 597.63 194.83Q598.53 193.94 598.53 192.36L598.53 185.38Q598.53 183.82 597.63 182.93Q596.73 182.04 595.14 182.04" fill="white" fill-opacity="0.7"/>
<path d="M616.12 197.64L604.84 197.64L604.84 195.67L609.52 195.67L609.52 186.41L605.32 186.41L605.32 184.44L611.68 184.44L611.68 195.67L616.12 195.67L616.12 197.64M610.36 182.06Q609.57 182.06 609.11 181.66Q608.66 181.25 608.66 180.55Q608.66 179.83 609.11 179.41Q609.57 178.99 610.36 178.99Q611.15 178.99 611.61 179.41Q612.06 179.83 612.06 180.55Q612.06 181.25 611.61 181.66Q611.15 182.06 610.36 182.06" fill="white" fill-opacity="0.7"/>
<path d="M624.76 201.96L621.06 201.96L621.06 199.99L624.78 199.99Q625.91 199.99 626.56 199.36Q627.21 198.72 627.21 197.64L627.21 196.44L627.26 194.28L627.18 194.28Q626.99 195.46 626.06 196.09Q625.12 196.73 623.70 196.73Q621.66 196.73 620.49 195.43Q619.31 194.14 619.31 191.88L619.31 189.10Q619.31 186.84 620.49 185.52Q621.66 184.20 623.70 184.20Q625.12 184.20 626.06 184.87Q626.99 185.54 627.18 186.72L627.23 186.72L627.23 184.44L629.37 184.44L629.37 197.64Q629.37 199.63 628.13 200.80Q626.90 201.96 624.76 201.96M624.35 194.93Q625.70 194.93 626.46 194.09Q627.23 193.25 627.23 191.76L627.23 189.24Q627.23 187.75 626.46 186.91Q625.70 186.07 624.35 186.07Q622.98 186.07 622.23 186.86Q621.47 187.66 621.47 189L621.47 192Q621.47 193.34 622.23 194.14Q622.98 194.93 624.35 194.93" fill="white" fill-opacity="0.7"/>
<path d="M644.92 197.64L633.64 197.64L633.64 195.67L638.32 195.67L638.32 186.41L634.12 186.41L634.12 184.44L640.48 184.44L640.48 195.67L644.92 195.67L644.92 197.64M639.16 182.06Q638.37 182.06 637.91 181.66Q637.46 181.25 637.46 180.55Q637.46 179.83 637.91 179.41Q638.37 178.99 639.16 178.99Q639.95 178.99 640.41 179.41Q640.86 179.83 640.86 180.55Q640.86 181.25 640.41 181.66Q639.95 182.06 639.16 182.06" fill="white" fill-opacity="0.7"/>
<path d="M659.20 197.64L649.12 197.64L649.12 180.12L651.28 180.12L651.28 195.67L659.20 195.67" fill="white" fill-opacity="0.7"/>
<path d="M667.60 197.83Q665.22 197.83 663.82 196.44Q662.42 195.05 662.42 192.55L662.42 189.53Q662.42 187.01 663.81 185.63Q665.20 184.25 667.60 184.25Q670 184.25 671.39 185.63Q672.78 187.01 672.78 189.53L672.78 192.55Q672.78 195.05 671.38 196.44Q669.98 197.83 667.60 197.83M667.60 195.91Q669.02 195.91 669.82 195.12Q670.62 194.33 670.62 192.79L670.62 189.29Q670.62 187.75 669.82 186.96Q669.02 186.17 667.60 186.17Q666.21 186.17 665.39 186.96Q664.58 187.75 664.58 189.29L664.58 192.79Q664.58 194.33 665.39 195.12Q666.21 195.91 667.60 195.91" fill="white" fill-opacity="0.7"/>
<path d="M682.19 197.88Q679.79 197.88 678.35 196.54Q676.91 195.19 676.91 192.84L676.91 189.24Q676.91 186.89 678.35 185.54Q679.79 184.20 682.19 184.20Q684.47 184.20 685.88 185.42Q687.28 186.65 687.35 188.76L685.19 188.76Q685.12 187.49 684.33 186.80Q683.54 186.12 682.19 186.12Q680.78 186.12 679.92 186.92Q679.07 187.73 679.07 189.22L679.07 192.84Q679.07 194.33 679.92 195.14Q680.78 195.96 682.19 195.96Q683.54 195.96 684.33 195.26Q685.12 194.57 685.19 193.32L687.35 193.32Q687.28 195.43 685.88 196.66Q684.47 197.88 682.19 197.88" fill="white" fill-opacity="0.7"/>
<path d="M693.69 197.64L691.53 197.64L691.53 180.12L693.69 180.12L693.69 189.89L696.21 189.89L699.90 184.44L702.38 184.44L698.13 190.73L702.62 197.64L700.10 197.64L696.26 191.76L693.69 191.76" fill="white" fill-opacity="0.7"/>
<path d="M710.80 197.88Q708.47 197.88 707.04 196.48Q705.62 195.07 705.62 192.60L705.62 189.48Q705.62 187.01 707.04 185.60Q708.47 184.20 710.80 184.20Q712.36 184.20 713.52 184.82Q714.69 185.45 715.34 186.58Q715.98 187.70 715.98 189.24L715.98 191.59L707.73 191.59L707.73 192.84Q707.73 194.30 708.57 195.16Q709.41 196.01 710.80 196.01Q712 196.01 712.78 195.54Q713.56 195.07 713.73 194.28L715.89 194.28Q715.67 195.94 714.28 196.91Q712.89 197.88 710.80 197.88M707.73 189.24L707.73 189.91L713.87 189.91L713.87 189.24Q713.87 187.68 713.07 186.83Q712.26 185.98 710.80 185.98Q709.34 185.98 708.53 186.83Q707.73 187.68 707.73 189.24" fill="white" fill-opacity="0.7"/>
<path d="M722.85 197.64L720.69 197.64L720.69 184.44L722.85 184.44L722.85 186.96L722.90 186.96Q723.06 185.69 723.98 184.94Q724.89 184.20 726.42 184.20Q728.49 184.20 729.60 185.44Q730.72 186.67 730.72 188.95L730.72 190.08L728.56 190.08L728.56 188.95Q728.56 186.07 725.75 186.07Q724.34 186.07 723.59 186.89Q722.85 187.70 722.85 189.24" fill="white" fill-opacity="0.7"/>
<path d="M739.60 197.88Q738.71 197.88 738.17 197.35Q737.63 196.82 737.63 195.98Q737.63 195.10 738.17 194.54Q738.71 193.99 739.60 193.99Q740.49 193.99 741.03 194.54Q741.57 195.10 741.57 195.98Q741.57 196.82 741.03 197.35Q740.49 197.88 739.60 197.88" fill="white" fill-opacity="0.7"/>
<path d="M76.11 136.06L66.42 136.06L84.56 65.98L97.14 65.98L115.18 136.06L105.49 136.06L101.07 117.82L80.53 117.82L76.11 136.06M87.54 88.92L82.45 109.95L99.15 109.95L94.16 89.02Q92.72 83.26 91.86 79.23Q90.99 75.20 90.80 73.76Q90.61 75.20 89.74 79.23Q88.88 83.26 87.54 88.92M137.55 136.06L128.05 136.06L128.05 65.98L150.80 65.98Q157.52 65.98 162.42 68.57Q167.31 71.16 170 75.82Q172.69 80.48 172.69 86.91Q172.69 93.24 170 97.90Q167.31 102.56 162.37 105.15Q157.42 107.74 150.80 107.74L137.55 107.74L137.55 136.06M137.55 74.43L137.55 99.29L150.80 99.29Q156.37 99.29 159.63 95.88Q162.90 92.48 162.90 86.91Q162.90 81.24 159.63 77.84Q156.37 74.43 150.80 74.43L137.55 74.43M225.10 136.06L186.90 136.06L186.90 127.42L201.20 127.42L201.20 74.62L186.90 74.62L186.90 65.98L225.10 65.98L225.10 74.62L210.80 74.62L210.80 127.42L225.10 127.42L225.10 136.06M263.98 137.02Q253.62 137.02 247.47 131.60Q241.33 126.17 241.33 116.67L250.83 116.67Q250.83 122.24 254.38 125.40Q257.94 128.57 263.98 128.57Q269.74 128.57 273.15 125.36Q276.56 122.14 276.56 116.76Q276.56 112.73 274.35 109.71Q272.14 106.68 268.11 105.63L257.74 102.84Q250.93 100.92 246.94 95.88Q242.96 90.84 242.96 83.93Q242.96 78.27 245.50 74Q248.05 69.72 252.66 67.37Q257.26 65.02 263.31 65.02Q269.46 65.02 274.11 67.37Q278.77 69.72 281.36 73.95Q283.95 78.17 283.95 83.74L274.54 83.74Q274.54 79.13 271.42 76.25Q268.30 73.37 263.31 73.37Q258.32 73.37 255.30 76.25Q252.27 79.13 252.27 83.74Q252.27 87.48 254.29 90.03Q256.30 92.57 259.95 93.63L270.61 96.51Q277.81 98.43 281.84 103.85Q285.87 109.28 285.87 116.76Q285.87 122.91 283.18 127.47Q280.50 132.03 275.55 134.52Q270.61 137.02 263.98 137.02M342.51 136.06L301.71 136.06L301.71 65.98L342.51 65.98L342.51 74.52L311.12 74.52L311.12 95.36L339.15 95.36L339.15 103.61L311.12 103.61L311.12 127.52L342.51 127.52L342.51 136.06M383.60 136.06L374.10 136.06L374.10 74.62L355.09 74.62L355.09 65.98L402.51 65.98L402.51 74.62L383.60 74.62L383.60 136.06M436.40 137.02Q426.51 137.02 421.18 131.55Q415.86 126.08 415.86 116.67L415.86 65.98L425.36 65.98L425.36 116.67Q425.36 122.24 428.10 125.40Q430.83 128.57 436.40 128.57Q441.87 128.57 444.70 125.40Q447.54 122.24 447.54 116.67L447.54 65.98L457.04 65.98L457.04 116.67Q457.04 126.17 451.71 131.60Q446.38 137.02 436.40 137.02M551.98 137.02Q542.29 137.02 536.58 131.60Q530.86 126.17 530.86 116.67L530.86 85.28Q530.86 75.87 536.58 70.44Q542.29 65.02 551.98 65.02Q561.58 65.02 567.30 70.49Q573.01 75.96 573.01 85.28L563.50 85.28Q563.50 79.61 560.43 76.54Q557.36 73.47 551.98 73.47Q546.51 73.47 543.44 76.54Q540.37 79.61 540.37 85.28L540.37 116.67Q540.37 122.43 543.44 125.50Q546.51 128.57 551.98 128.57Q557.36 128.57 560.43 125.50Q563.50 122.43 563.50 116.67L563.50 107.55L549.87 107.55L549.87 99.10L573.01 99.10L573.01 116.67Q573.01 126.08 567.30 131.55Q561.58 137.02 551.98 137.02M609.20 137.02Q599.60 137.02 594.03 131.45Q588.46 125.88 588.46 115.71L588.46 86.24Q588.46 76.16 594.03 70.59Q599.60 65.02 609.20 65.02Q618.80 65.02 624.37 70.54Q629.94 76.06 629.94 86.24L629.94 115.71Q629.94 125.88 624.37 131.45Q618.80 137.02 609.20 137.02M609.20 128.57Q614.58 128.57 617.50 125.50Q620.43 122.43 620.43 116.67L620.43 85.28Q620.43 79.61 617.55 76.54Q614.67 73.47 609.20 73.47Q603.73 73.47 600.85 76.54Q597.97 79.61 597.97 85.28L597.97 116.67Q597.97 122.43 600.90 125.50Q603.82 128.57 609.20 128.57M673.14 136.06L660.37 136.06L642.42 65.98L652.21 65.98L663.82 113.21Q664.98 117.72 665.79 121.90Q666.61 126.08 666.99 128.28Q667.28 126.08 668.19 121.85Q669.10 117.63 670.16 113.12L681.39 65.98L691.18 65.98L673.14 136.06M780.46 136.06L761.65 136.06L761.65 65.98L780.46 65.98Q787.28 65.98 792.32 68.62Q797.36 71.26 800.14 76.01Q802.93 80.76 802.93 87.20L802.93 114.75Q802.93 121.18 800.14 125.98Q797.36 130.78 792.32 133.42Q787.28 136.06 780.46 136.06M771.15 74.43L771.15 127.61L780.46 127.61Q786.51 127.61 789.97 124.16Q793.42 120.70 793.42 114.75L793.42 87.20Q793.42 81.24 789.97 77.84Q786.51 74.43 780.46 74.43L771.15 74.43M858.70 136.06L820.50 136.06L820.50 127.42L834.80 127.42L834.80 74.62L820.50 74.62L820.50 65.98L858.70 65.98L858.70 74.62L844.40 74.62L844.40 127.42L858.70 127.42L858.70 136.06MNaN 136.06L892.50 136.06L892.50 74.62L873.49 74.62L873.49 65.98L920.91 65.98L920.91 74.62LNaN 74.62LNaN 136.06M940.11 136.06L930.42 136.06L948.56 65.98L961.14 65.98L979.18 136.06L969.49 136.06L965.07 117.82L944.53 117.82L940.11 136.06M951.54 88.92L946.45 109.95L963.15 109.95L958.16 89.02Q956.72 83.26 955.86 79.23Q954.99 75.20 954.80 73.76Q954.61 75.20 953.74 79.23Q952.88 83.26 951.54 88.92M1001.55 136.06L992.14 136.06L992.14 65.98L1013.84 65.98Q1020.27 65.98 1025.07 68.52Q1029.87 71.07 1032.56 75.63Q1035.25 80.19 1035.25 86.33Q1035.25 93.44 1031.65 98.52Q1028.05 103.61 1022.10 105.72L1036.21 136.06L1025.74 136.06L1012.40 106.78L1001.55 106.78L1001.55 136.06M1001.55 74.43L1001.55 98.33L1013.84 98.33Q1019.22 98.33 1022.34 95.07Q1025.46 91.80 1025.46 86.43Q1025.46 80.96 1022.29 77.69Q1019.12 74.43 1013.84 74.43L1001.55 74.43MNaN 137.02Q1060.11 137.02 1054.78 131.55Q1049.46 126.08 1049.46 116.67L1049.46 65.98L1058.96 65.98L1058.96 116.67Q1058.96 122.24 1061.70 125.40Q1064.43 128.57 NaN 128.57Q1075.47 128.57 1078.30 125.40Q1081.14 122.24 1081.14 116.67L1081.14 65.98L1090.64 65.98L1090.64 116.67Q1090.64 126.17 1085.31 131.60Q1079.98 137.02 NaN 137.02M1115.98 136.06L1107.06 136.06L1107.06 65.98L1119.34 65.98L1140.27 125.12Q1139.98 122.62 1139.74 118.92Q1139.50 115.23 1139.36 111.24Q1139.22 107.26 1139.22 103.71L1139.22 65.98L1148.24 65.98L1148.24 136.06L1135.86 136.06L1115.12 76.92Q1115.31 79.42 1115.50 83.02Q1115.70 86.62 1115.84 90.56Q1115.98 94.49 1115.98 97.95L1115.98 136.06M1170.51 136.06L1160.82 136.06L1178.96 65.98L1191.54 65.98L1209.58 136.06L1199.89 136.06L1195.47 117.82L1174.93 117.82L1170.51 136.06M1181.94 88.92L1176.85 109.95L1193.55 109.95L1188.56 89.02Q1187.12 83.26 1186.26 79.23Q1185.39 75.20 1185.20 73.76Q1185.01 75.20 1184.14 79.23Q1183.28 83.26 1181.94 88.92M1243.57 137.02Q1233.87 137.02 1228.16 131.60Q1222.45 126.17 1222.45 116.67L1222.45 85.28Q1222.45 75.87 1228.16 70.44Q1233.87 65.02 1243.57 65.02Q1253.17 65.02 1258.88 70.49Q1264.59 75.96 1264.59 85.28L1255.09 85.28Q1255.09 79.61 1252.02 76.54Q1248.94 73.47 1243.57 73.47Q1238.10 73.47 1235.02 76.54Q1231.95 79.61 1231.95 85.28L1231.95 116.67Q1231.95 122.43 1235.02 125.50Q1238.10 128.57 1243.57 128.57Q1248.94 128.57 1252.02 125.50Q1255.09 122.43 1255.09 116.67L1264.59 116.67Q1264.59 126.08 1258.88 131.55Q1253.17 137.02 1243.57 137.02M1289.65 136.06L1280.14 136.06L1280.14 65.98L1289.65 65.98L1289.65 95.55L1311.15 95.55L1311.15 65.98L1320.66 65.98L1320.66 136.06L1311.15 136.06L1311.15 104.19L1289.65 104.19L1289.65 136.06M1343.31 136.06L1333.62 136.06L1351.76 65.98L1364.34 65.98L1382.38 136.06L1372.69 136.06L1368.27 117.82L1347.73 117.82L1343.31 136.06M1354.74 88.92L1349.65 109.95L1366.35 109.95L1361.36 89.02Q1359.92 83.26 1359.06 79.23Q1358.19 75.20 1358 73.76Q1357.81 75.20 1356.94 79.23Q1356.08 83.26 1354.74 88.92M1439.79 136.06L1399.09 136.06L1399.09 65.98L1408.59 65.98L1408.59 127.42L1439.79 127.42" fill="url(#paint2_linear_0_1)"/>
<g id="Group 1">
<rect id="Rectangle 1" x="26" y="168" width="12" height="184" rx="5" fill="url(#paint3_linear_0_1)" fill-opacity="0.9"/>
</g>
<g id="Group 1_2">
<rect id="Rectangle 2" x="26" y="38" width="12" height="119" rx="5" fill="url(#paint4_linear_0_1)" fill-opacity="0.9"/>
</g>
<ellipse id="Ellipse 1" cx="148.5" cy="573" rx="215.5" ry="214" fill="url(#paint5_linear_0_1)" fill-opacity="0.4"/>
<rect id="Rectangle 3" x="1229" y="48" width="300" height="300" rx="25" fill="#FFFBFB" fill-opacity="0.9"/>
<g id="placeholder-logo"><g transform="translate(1229,48) translate(0.0,60.0) scale(1.2000)"><g fill="#666666">
  <path d="m88.05,27.65c-3.15,4 -3.2,51.2 -0.05,54.35c2.75,2.75 71.7,3.15 74.45,0.45c2.85,-2.9 2.3,-53.85 -0.65,-55.9c-1.95,-1.35 -7.15,-1.55 -36.95,-1.55l-34.7,0l-2.1,2.65zm69.45,3.35c0.65,0 1,8.6 1,23.75l0,23.75l-33,0l-33,0l-0.25,-23c-0.15,-12.6 -0.1,-23.45 0.15,-24.1c0.35,-0.85 8.9,-1.05 32.25,-0.75c17.55,0.2 32.3,0.35 32.85,0.35z"/>
  <path d="m99.15,37.3c-6.85,7.35 4.25,17.35 11.4,10.25c1.35,-1.35 2.45,-3.65 2.45,-5.05c0,-6.45 -9.35,-9.95 -13.85,-5.2z"/>
  <path d="m135,42.5c-0.7,0.85 -5.25,5.15 -10.1,9.6l-8.85,8.1l-3.2,-3.2l-3.15,-3.15l-6.35,6.3c-5.55,5.5 -6.35,6.75 -6.35,10.05l0,3.8l28.5,0l28.5,0l0,-8.6l0,-8.55l-8.15,-7.7c-9.35,-8.85 -9.15,-8.7 -10.85,-6.65zm7.25,15.2c0.95,0.9 1.75,2.9 1.75,4.45c6.35,-5.05 4.75,-7.15 4.9,-11.55c0.95,0 0,0 0,0l-6.65,7.1z"/>
  <path d="m53.65,110.75c0.1,4.8 0.45,8.65 0.75,8.5c0.35,-0.15 1.3,-0.25 2.1,-0.25c1.1,0 1.5,-1.2 1.5,-4.75l0,-4.75l3.25,5c4.9,7.5 6.2,6.75 6.55,-3.75c0.25,-8.15 0.15,-8.75 -1.7,-8.75c-1.65,0 -2.05,0.8 -2.3,4.75l-0.3,4.75l-2.8,-4.75c-4.85,-8.25 -7.25,-6.9 -7.05,4z"/>
  <path d="m91,108.9c0,9.65 0.3,10.1 6.1,10.1c5.8,0 7.15,-2.65 1.65,-3.2l-3.25,-0.3l-0.3,-6.75c-0.25,-5.95 -0.55,-6.75 -2.25,-6.75c-1.75,0 -1.95,0.7 -1.95,6.9z"/>
  <path d="m151,102.45c0,0.25 1,2.15 2.25,4.2c1.2,2.1 2.45,5.8 2.75,8.25c0.65,5.9 4,6.95 4,1.25c0.05,-2.1 1.25,-5.85 2.95,-8.9l2.9,-5.25l-2.5,0c-1.8,0 -2.8,0.85 -3.75,3.1l-1.3,3.05l-1.25,-3.05c-1.1,-2.6 -6.05,-4.8 -6.05,-2.65z"/>
  <path d="m191,107.45c0,9.05 3.4,8.85 4.25,-0.2c0.45,-5 0.35,-5.25 -1.9,-5.25c-2.2,0 -2.35,0.4 -2.35,5.45z"/>
  <path d="m180.8,104.75c-1.3,5.35 0.65,13.6 3.45,14.35c2.3,0.6 2.75,0.4 2.75,-1.2c0,-1.05 -0.45,-1.9 -1,-1.9c-0.55,0 -1,-1.6 -1,-3.5c0,-1.95 0.45,-3.5 1,-3.5c0.55,0 1,-0.7 1,-1.5c0,-0.85 -0.45,-1.5 -1,-1.5c-0.55,0 -1,-0.7 -1,-1.5c0,-2.1 -3.65,-1.9 -4.2,0.25z"/>
  <path d="m71.55,106.55c-2.2,2.25 -2.05,9.7 0.3,11.8c4.5,4.1 10.15,0.75 10.15,-6.1c0,-4.85 -2,-7.25 -6,-7.25c-1.55,0 -3.55,0.7 -4.45,1.55zm6.25,5.8c0.25,3.05 0,3.65 -1.6,3.65c-2.3,0 -3.25,-2.65 -2.05,-5.85c1.25,-3.35 3.3,-2.1 3.65,2.2z"/>
  <path d="m105.75,106.1c-2.5,1.45 -2.45,9.95 0.1,12.25c4.3,3.9 10.15,0.35 10.15,-6.2c0,-6 -5.15,-9.05 -10.25,-6.05zm6.05,6.25c0.25,3.05 0,3.65 -1.6,3.65c-2.3,0 -3.25,-2.65 -2.05,-5.85c1.25,-3.35 3.3,-2.1 3.65,2.2z"/>
  <path d="m119.2,106.2c-3.8,3.8 -0.4,12.55 4.4,11.35c1.9,-0.45 2.45,-0.3 2.15,0.65c-0.25,0.7 -1.55,1.2 -2.85,1.1c-4.05,-0.3 -5.35,0.45 -3.85,2.25c0.85,1.05 2.6,1.45 5.35,1.25l4.1,-0.3l0.3,-8.75l0.3,-8.75l-4.35,0c-2.4,0 -4.9,0.55 -5.55,1.2zm6.6,4.45c0.4,2.85 -2.15,4.85 -3.75,2.95c-0.9,-1.1 -0.9,-2 -0.05,-3.6c1.35,-2.5 3.4,-2.15 3.8,0.65z"/>
  <path d="m133.55,106.55c-2.2,2.25 -2.05,9.7 0.3,11.8c4.5,4.1 10.15,0.75 10.15,-6.1c0,-4.85 -2,-7.25 -6,-7.25c-1.55,0 -3.55,0.7 -4.45,1.55zm6.25,5.8c0.25,3.05 0,3.65 -1.6,3.65c-2.3,0 -3.25,-2.65 -2.05,-5.85c1.25,-3.35 3.3,-2.1 3.65,2.2z"/>
  <path d="m167.65,106.85c-3.9,4.3 -0.75,13.15 4.7,13.15c2.4,0 5.65,-2.75 5.65,-4.85c0,-1.4 -2.65,-1.55 -3.5,-0.15c-0.95,1.55 -4.5,1.15 -4.5,-0.5c0,-1.1 1.1,-1.5 4,-1.5c3.15,0 4,-0.35 4,-1.8c0,-5.3 -6.85,-8.25 -10.35,-4.35z"/>
  <path d="m191,117.5c0,2.15 0.4,2.6 2.25,2.3c1.5,-0.2 2.25,-1 2.25,-2.3c0,-1.3 -0.75,-2.1 -2.25,-2.3c-1.85,-0.3 -2.25,0.15 -2.25,2.3z"/>
 </g></g></g>
</g>
<defs>
<linearGradient id="paint0_linear_0_1" x1="0" y1="198" x2="1584" y2="198" gradientUnits="userSpaceOnUse">
<stop stop-color="#3D052C"/>
<stop offset="1"/>
</linearGradient>
<linearGradient id="paint1_linear_0_1" x1="323" y1="-224" x2="323" y2="352" gradientUnits="userSpaceOnUse">
<stop stop-color="#28F6F2" stop-opacity="0.4"/>
<stop offset="1" stop-color="#17908E" stop-opacity="0.7"/>
</linearGradient>
<linearGradient id="paint2_linear_0_1" x1="148.5" y1="38" x2="148.5" y2="140" gradientUnits="userSpaceOnUse">
<stop stop-color="white"/>
<stop offset="1" stop-color="#999999"/>
</linearGradient>
<linearGradient id="paint3_linear_0_1" x1="38" y1="260" x2="26" y2="260" gradientUnits="userSpaceOnUse">
<stop stop-color="#D9D9D9"/>
<stop offset="1" stop-color="#737373"/>
</linearGradient>
<linearGradient id="paint4_linear_0_1" x1="38" y1="97.5" x2="26" y2="97.5" gradientUnits="userSpaceOnUse">
<stop stop-color="#D9D9D9"/>
<stop offset="1" stop-color="#737373"/>
</linearGradient>
<linearGradient id="paint5_linear_0_1" x1="27.5" y1="434.5" x2="148.5" y2="787" gradientUnits="userSpaceOnUse">
<stop stop-color="#2E21BC"/>
<stop offset="1" stop-color="#150F56"/>
</linearGradient>
<clipPath id="clip0_0_1">
<rect width="1584" height="396" fill="white"/>
</clipPath>
</defs>
</svg>
